<svg xmlns="http://www.w3.org/2000/svg" viewBox="0 0 512 512" role="img" aria-labelledby="title">
  <title id="title">Quarry</title>
  <rect width="512" height="512" rx="112" fill="#FFF6E8"/>
  <circle cx="352" cy="154" r="86" fill="#F7B733"/>
  <path fill="#232733" d="M106 182c0-45 68-78 150-78s150 33 150 78v152c0 45-68 78-150 78s-150-33-150-78V182Z"/>
  <ellipse cx="256" cy="182" rx="150" ry="64" fill="#232733"/>
  <ellipse cx="256" cy="176" rx="104" ry="34" fill="#F7B733"/>
  <path d="M132 246c28 24 74 38 124 38s96-14 124-38" fill="none" stroke="#FFF6E8" stroke-width="18" stroke-linecap="round" opacity=".74"/>
  <path d="M132 308c28 24 74 38 124 38s96-14 124-38" fill="none" stroke="#FFF6E8" stroke-width="18" stroke-linecap="round" opacity=".30"/>
  <rect x="150" y="360" width="62" height="24" rx="12" fill="#FFF6E8"/>
  <rect x="232" y="360" width="92" height="24" rx="12" fill="#F7B733"/>
  <rect x="344" y="360" width="40" height="24" rx="12" fill="#FFF6E8" opacity=".82"/>
  <rect x="18" y="18" width="476" height="476" rx="102" fill="none" stroke="#232733" stroke-opacity=".08" stroke-width="4"/>
</svg>
